# xmcd
#
# Track frame offsets: 
#        150
#        13151
#        24519
#        37691
#        51556
#        62899
#        74928
#        86717
#        99558
#        112904
#        125278
#        135824
#        149389
#        160064
#        171254
#        185338
#        198040
#        212065
#        222715
#        232860
#
# Disc length: 3281 seconds
#
# Revision: 0
# Processed by: cddbd v1.5.2PL0 Copyright (c) Steve Scherf et al.
# Submitted via: ExactAudioCopy v0.99pb5
#
DISCID=1e0ccf14
DTITLE=J.E. Mainer and His Mountaineers - 20 Original Recordings
DYEAR=1900
DGENRE=Country
TTITLE0=What'll I Do With The Baby-O
TTITLE1=Don't Tease Me This Way
TTITLE2=Run Mountain
TTITLE3=I'll Remember You In My Prayers
TTITLE4=Mainer's Breakdown
TTITLE5=John Henry
TTITLE6=Forks Of The Road
TTITLE7=Big Ball's In Town
TTITLE8=Pale Moonlight
TTITLE9=Mother's Only Sleeping
TTITLE10=Nobody's Business
TTITLE11=Lonely Train
TTITLE12=Forty Years Ago
TTITLE13=Hard Times In A Cotton Mill
TTITLE14=I've Taken My Fun Where I've Found It
TTITLE15=Shoot The Turkey Buzzard
TTITLE16=Little Adobe Shack
TTITLE17=I'll Be True To The One I Love
TTITLE18=Get Away Old Man Get Away
TTITLE19=Johnson County Blues
EXTD=
EXTT0=
EXTT1=
EXTT2=
EXTT3=
EXTT4=
EXTT5=
EXTT6=
EXTT7=
EXTT8=
EXTT9=
EXTT10=
EXTT11=
EXTT12=
EXTT13=
EXTT14=
EXTT15=
EXTT16=
EXTT17=
EXTT18=
EXTT19=
PLAYORDER=
